<mxfile host="65bd71144e">
    <diagram id="VQNyq62mX9dCfZkob2OO" name="Page-1">
        <mxGraphModel dx="1070" dy="605" grid="1" gridSize="10" guides="1" tooltips="1" connect="1" arrows="1" fold="1" page="0" pageScale="1" pageWidth="850" pageHeight="1100" math="1" shadow="0">
            <root>
                <mxCell id="0"/>
                <mxCell id="1" parent="0"/>
                <mxCell id="2" value="time" style="endArrow=classicThin;dashed=1;html=1;endFill=0;strokeWidth=2;" edge="1" parent="1">
                    <mxGeometry x="-0.9545" y="-10" width="50" height="50" relative="1" as="geometry">
                        <mxPoint x="-120" y="240" as="sourcePoint"/>
                        <mxPoint x="320" y="240" as="targetPoint"/>
                        <mxPoint as="offset"/>
                    </mxGeometry>
                </mxCell>
                <mxCell id="5" value="&lt;span style=&quot;font-size: 11px;&quot;&gt;`t_0`&lt;/span&gt;" style="text;whiteSpace=wrap;html=1;align=center;movable=1;resizable=1;rotatable=1;deletable=1;editable=1;connectable=1;" vertex="1" parent="1">
                    <mxGeometry x="-80" y="240" width="30" height="30" as="geometry"/>
                </mxCell>
                <mxCell id="7" value="" style="endArrow=none;html=1;strokeWidth=2;fontStyle=1" edge="1" parent="1">
                    <mxGeometry width="50" height="50" relative="1" as="geometry">
                        <mxPoint x="-80" y="250" as="sourcePoint"/>
                        <mxPoint x="-80" y="240" as="targetPoint"/>
                    </mxGeometry>
                </mxCell>
                <mxCell id="9" value="" style="group" vertex="1" connectable="0" parent="1">
                    <mxGeometry x="-90" y="215" width="35" height="30" as="geometry"/>
                </mxCell>
                <mxCell id="6" value="&lt;span style=&quot;font-size: 11px;&quot;&gt;`h_0`&lt;/span&gt;" style="text;whiteSpace=wrap;html=1;align=center;movable=1;resizable=1;rotatable=1;deletable=1;editable=1;connectable=1;" vertex="1" parent="9">
                    <mxGeometry width="30" height="30" as="geometry"/>
                </mxCell>
                <mxCell id="8" value="" style="shape=waypoint;sketch=0;fillStyle=solid;size=6;pointerEvents=1;points=[];fillColor=none;resizable=0;rotatable=0;perimeter=centerPerimeter;snapToPoint=1;" vertex="1" parent="9">
                    <mxGeometry x="15" y="5" width="20" height="20" as="geometry"/>
                </mxCell>
                <mxCell id="10" value="" style="group" vertex="1" connectable="0" parent="1">
                    <mxGeometry x="-30" y="215" width="35" height="30" as="geometry"/>
                </mxCell>
                <mxCell id="11" value="&lt;span style=&quot;font-size: 11px;&quot;&gt;`h_1`&lt;/span&gt;" style="text;whiteSpace=wrap;html=1;align=center;movable=1;resizable=1;rotatable=1;deletable=1;editable=1;connectable=1;" vertex="1" parent="10">
                    <mxGeometry width="30" height="30" as="geometry"/>
                </mxCell>
                <mxCell id="12" value="" style="shape=waypoint;sketch=0;fillStyle=solid;size=6;pointerEvents=1;points=[];fillColor=none;resizable=0;rotatable=0;perimeter=centerPerimeter;snapToPoint=1;" vertex="1" parent="10">
                    <mxGeometry x="15" y="5" width="20" height="20" as="geometry"/>
                </mxCell>
                <mxCell id="13" value="" style="group" vertex="1" connectable="0" parent="1">
                    <mxGeometry x="30" y="215" width="35" height="30" as="geometry"/>
                </mxCell>
                <mxCell id="14" value="&lt;span style=&quot;font-size: 11px;&quot;&gt;`h_2`&lt;/span&gt;" style="text;whiteSpace=wrap;html=1;align=center;movable=1;resizable=1;rotatable=1;deletable=1;editable=1;connectable=1;" vertex="1" parent="13">
                    <mxGeometry width="30" height="30" as="geometry"/>
                </mxCell>
                <mxCell id="15" value="" style="shape=waypoint;sketch=0;fillStyle=solid;size=6;pointerEvents=1;points=[];fillColor=none;resizable=0;rotatable=0;perimeter=centerPerimeter;snapToPoint=1;" vertex="1" parent="13">
                    <mxGeometry x="15" y="5" width="20" height="20" as="geometry"/>
                </mxCell>
                <mxCell id="17" value="" style="group" vertex="1" connectable="0" parent="1">
                    <mxGeometry x="90" y="215" width="35" height="30" as="geometry"/>
                </mxCell>
                <mxCell id="18" value="&lt;span style=&quot;font-size: 11px;&quot;&gt;`h_3`&lt;/span&gt;" style="text;whiteSpace=wrap;html=1;align=center;movable=1;resizable=1;rotatable=1;deletable=1;editable=1;connectable=1;" vertex="1" parent="17">
                    <mxGeometry width="30" height="30" as="geometry"/>
                </mxCell>
                <mxCell id="19" value="" style="shape=waypoint;sketch=0;fillStyle=solid;size=6;pointerEvents=1;points=[];fillColor=none;resizable=0;rotatable=0;perimeter=centerPerimeter;snapToPoint=1;" vertex="1" parent="17">
                    <mxGeometry x="15" y="5" width="20" height="20" as="geometry"/>
                </mxCell>
                <mxCell id="20" value="" style="group" vertex="1" connectable="0" parent="1">
                    <mxGeometry x="150" y="215" width="40" height="55" as="geometry"/>
                </mxCell>
                <mxCell id="21" value="&lt;span style=&quot;font-size: 11px;&quot;&gt;`h_4`&lt;/span&gt;" style="text;whiteSpace=wrap;html=1;align=center;movable=1;resizable=1;rotatable=1;deletable=1;editable=1;connectable=1;" vertex="1" parent="20">
                    <mxGeometry width="30" height="30" as="geometry"/>
                </mxCell>
                <mxCell id="22" value="" style="shape=waypoint;sketch=0;fillStyle=solid;size=6;pointerEvents=1;points=[];fillColor=none;resizable=0;rotatable=0;perimeter=centerPerimeter;snapToPoint=1;" vertex="1" parent="20">
                    <mxGeometry x="15" y="5" width="20" height="20" as="geometry"/>
                </mxCell>
                <mxCell id="94" value="" style="endArrow=none;html=1;strokeWidth=2;fontStyle=1" edge="1" parent="20">
                    <mxGeometry width="50" height="50" relative="1" as="geometry">
                        <mxPoint x="10" y="34.99999999999994" as="sourcePoint"/>
                        <mxPoint x="10" y="24.999999999999943" as="targetPoint"/>
                    </mxGeometry>
                </mxCell>
                <mxCell id="95" value="&lt;span style=&quot;font-size: 11px;&quot;&gt;`t_{current}`&lt;/span&gt;" style="text;whiteSpace=wrap;html=1;align=center;movable=1;resizable=1;rotatable=1;deletable=1;editable=1;connectable=1;" vertex="1" parent="20">
                    <mxGeometry x="20" y="25" width="30" height="30" as="geometry"/>
                </mxCell>
                <mxCell id="46" value="" style="edgeStyle=orthogonalEdgeStyle;html=1;strokeWidth=1;endArrow=classicThin;endFill=0;entryX=0.676;entryY=0.61;entryDx=0;entryDy=0;entryPerimeter=0;curved=1;" edge="1" parent="1" source="12" target="8">
                    <mxGeometry relative="1" as="geometry">
                        <Array as="points">
                            <mxPoint x="-5" y="220"/>
                            <mxPoint x="-50" y="220"/>
                            <mxPoint x="-50" y="230"/>
                        </Array>
                    </mxGeometry>
                </mxCell>
                <mxCell id="49" value="" style="edgeStyle=orthogonalEdgeStyle;html=1;strokeWidth=1;endArrow=classicThin;endFill=0;curved=1;entryX=0.822;entryY=0.085;entryDx=0;entryDy=0;entryPerimeter=0;" edge="1" parent="1" source="15" target="12">
                    <mxGeometry relative="1" as="geometry">
                        <mxPoint x="5" y="240" as="sourcePoint"/>
                        <mxPoint x="-10" y="230" as="targetPoint"/>
                        <Array as="points">
                            <mxPoint x="55" y="220"/>
                            <mxPoint x="10" y="220"/>
                            <mxPoint x="10" y="230"/>
                        </Array>
                    </mxGeometry>
                </mxCell>
                <mxCell id="52" value="" style="edgeStyle=orthogonalEdgeStyle;html=1;strokeWidth=1;endArrow=classicThin;endFill=0;curved=1;entryX=0.506;entryY=0.656;entryDx=0;entryDy=0;entryPerimeter=0;exitX=0.466;exitY=0.624;exitDx=0;exitDy=0;exitPerimeter=0;" edge="1" parent="1" source="19" target="15">
                    <mxGeometry relative="1" as="geometry">
                        <mxPoint x="112.5" y="225" as="sourcePoint"/>
                        <mxPoint x="52.5" y="225" as="targetPoint"/>
                        <Array as="points">
                            <mxPoint x="112" y="230"/>
                            <mxPoint x="112" y="220"/>
                            <mxPoint x="68" y="220"/>
                            <mxPoint x="68" y="230"/>
                        </Array>
                    </mxGeometry>
                </mxCell>
                <mxCell id="53" value="" style="edgeStyle=orthogonalEdgeStyle;html=1;strokeWidth=1;endArrow=classicThin;endFill=0;curved=1;entryX=0.91;entryY=-0.027;entryDx=0;entryDy=0;entryPerimeter=0;exitX=0.654;exitY=0.449;exitDx=0;exitDy=0;exitPerimeter=0;" edge="1" parent="1" source="22" target="19">
                    <mxGeometry relative="1" as="geometry">
                        <mxPoint x="125" y="240" as="sourcePoint"/>
                        <mxPoint x="65" y="240" as="targetPoint"/>
                        <Array as="points">
                            <mxPoint x="175" y="220"/>
                            <mxPoint x="130" y="220"/>
                            <mxPoint x="130" y="230"/>
                        </Array>
                    </mxGeometry>
                </mxCell>
                <mxCell id="54" value="" style="edgeStyle=orthogonalEdgeStyle;html=1;strokeWidth=1;endArrow=classicThin;endFill=0;curved=1;entryX=0.582;entryY=-0.021;entryDx=0;entryDy=0;entryPerimeter=0;exitX=1.058;exitY=0.479;exitDx=0;exitDy=0;exitPerimeter=0;" edge="1" parent="1" source="25" target="22">
                    <mxGeometry relative="1" as="geometry">
                        <mxPoint x="185" y="240" as="sourcePoint"/>
                        <mxPoint x="125" y="240" as="targetPoint"/>
                        <Array as="points">
                            <mxPoint x="235" y="220"/>
                            <mxPoint x="190" y="220"/>
                            <mxPoint x="190" y="230"/>
                        </Array>
                    </mxGeometry>
                </mxCell>
                <mxCell id="25" value="" style="shape=waypoint;sketch=0;fillStyle=solid;size=6;pointerEvents=1;points=[];fillColor=none;resizable=0;rotatable=0;perimeter=centerPerimeter;snapToPoint=1;" vertex="1" parent="1">
                    <mxGeometry x="225" y="220" width="20" height="20" as="geometry"/>
                </mxCell>
                <mxCell id="24" value="&lt;span style=&quot;font-size: 11px;&quot;&gt;`h_5`&lt;/span&gt;" style="text;whiteSpace=wrap;html=1;align=center;movable=1;resizable=1;rotatable=1;deletable=1;editable=1;connectable=1;" vertex="1" parent="1">
                    <mxGeometry x="210" y="215" width="30" height="30" as="geometry"/>
                </mxCell>
                <mxCell id="55" value="" style="edgeStyle=orthogonalEdgeStyle;html=1;strokeWidth=1;endArrow=classicThin;endFill=0;curved=1;exitX=0;exitY=1;exitDx=0;exitDy=0;" edge="1" parent="1" source="56" target="25">
                    <mxGeometry relative="1" as="geometry">
                        <mxPoint x="270" y="220" as="sourcePoint"/>
                        <mxPoint x="240" y="260.8720930232558" as="targetPoint"/>
                        <Array as="points">
                            <mxPoint x="255" y="220"/>
                            <mxPoint x="255" y="230"/>
                        </Array>
                    </mxGeometry>
                </mxCell>
                <mxCell id="56" value="&lt;span style=&quot;font-size: 11px;&quot;&gt;`...`&lt;/span&gt;" style="text;whiteSpace=wrap;html=1;align=center;movable=1;resizable=1;rotatable=1;deletable=1;editable=1;connectable=1;" vertex="1" parent="1">
                    <mxGeometry x="280" y="200" width="20" height="20" as="geometry"/>
                </mxCell>
                <mxCell id="68" value="" style="endArrow=none;html=1;strokeWidth=1;curved=1;" edge="1" parent="1">
                    <mxGeometry width="50" height="50" relative="1" as="geometry">
                        <mxPoint x="-65" y="220" as="sourcePoint"/>
                        <mxPoint x="-65" y="190" as="targetPoint"/>
                    </mxGeometry>
                </mxCell>
                <mxCell id="69" value="" style="endArrow=none;html=1;strokeWidth=1;curved=1;" edge="1" parent="1">
                    <mxGeometry width="50" height="50" relative="1" as="geometry">
                        <mxPoint x="-5" y="220" as="sourcePoint"/>
                        <mxPoint x="-5" y="190" as="targetPoint"/>
                    </mxGeometry>
                </mxCell>
                <mxCell id="70" value="" style="endArrow=none;html=1;strokeWidth=1;curved=1;" edge="1" parent="1">
                    <mxGeometry width="50" height="50" relative="1" as="geometry">
                        <mxPoint x="55" y="220" as="sourcePoint"/>
                        <mxPoint x="55" y="190" as="targetPoint"/>
                    </mxGeometry>
                </mxCell>
                <mxCell id="71" value="" style="endArrow=none;html=1;strokeWidth=1;curved=1;" edge="1" parent="1">
                    <mxGeometry width="50" height="50" relative="1" as="geometry">
                        <mxPoint x="115" y="220" as="sourcePoint"/>
                        <mxPoint x="115" y="190" as="targetPoint"/>
                    </mxGeometry>
                </mxCell>
                <mxCell id="73" value="" style="endArrow=none;html=1;strokeWidth=1;curved=1;" edge="1" parent="1">
                    <mxGeometry width="50" height="50" relative="1" as="geometry">
                        <mxPoint x="175" y="220" as="sourcePoint"/>
                        <mxPoint x="175" y="190" as="targetPoint"/>
                    </mxGeometry>
                </mxCell>
                <mxCell id="74" value="" style="endArrow=none;html=1;strokeWidth=1;curved=1;" edge="1" parent="1">
                    <mxGeometry width="50" height="50" relative="1" as="geometry">
                        <mxPoint x="234.69" y="220" as="sourcePoint"/>
                        <mxPoint x="234.69" y="190" as="targetPoint"/>
                    </mxGeometry>
                </mxCell>
                <mxCell id="75" value="" style="endArrow=blockThin;html=1;strokeWidth=1;curved=1;endFill=1;" edge="1" parent="1">
                    <mxGeometry width="50" height="50" relative="1" as="geometry">
                        <mxPoint x="-65" y="205" as="sourcePoint"/>
                        <mxPoint x="-35" y="205" as="targetPoint"/>
                    </mxGeometry>
                </mxCell>
                <mxCell id="77" value="" style="endArrow=blockThin;html=1;strokeWidth=1;curved=1;endFill=1;" edge="1" parent="1">
                    <mxGeometry width="50" height="50" relative="1" as="geometry">
                        <mxPoint x="-5" y="205" as="sourcePoint"/>
                        <mxPoint x="25" y="205" as="targetPoint"/>
                    </mxGeometry>
                </mxCell>
                <mxCell id="78" value="" style="endArrow=blockThin;html=1;strokeWidth=1;curved=1;endFill=1;" edge="1" parent="1">
                    <mxGeometry width="50" height="50" relative="1" as="geometry">
                        <mxPoint x="55" y="205" as="sourcePoint"/>
                        <mxPoint x="85" y="205" as="targetPoint"/>
                    </mxGeometry>
                </mxCell>
                <mxCell id="79" value="" style="endArrow=blockThin;html=1;strokeWidth=1;curved=1;endFill=1;" edge="1" parent="1">
                    <mxGeometry width="50" height="50" relative="1" as="geometry">
                        <mxPoint x="115" y="205" as="sourcePoint"/>
                        <mxPoint x="145" y="205" as="targetPoint"/>
                    </mxGeometry>
                </mxCell>
                <mxCell id="80" value="" style="endArrow=blockThin;html=1;strokeWidth=1;curved=1;endFill=1;" edge="1" parent="1">
                    <mxGeometry width="50" height="50" relative="1" as="geometry">
                        <mxPoint x="176" y="205" as="sourcePoint"/>
                        <mxPoint x="205" y="205" as="targetPoint"/>
                    </mxGeometry>
                </mxCell>
                <mxCell id="81" value="" style="endArrow=blockThin;html=1;strokeWidth=1;curved=1;endFill=1;" edge="1" parent="1">
                    <mxGeometry width="50" height="50" relative="1" as="geometry">
                        <mxPoint x="235" y="205" as="sourcePoint"/>
                        <mxPoint x="265" y="205" as="targetPoint"/>
                    </mxGeometry>
                </mxCell>
                <mxCell id="85" value="&lt;span style=&quot;font-size: 11px;&quot;&gt;`k_0`&lt;/span&gt;" style="text;whiteSpace=wrap;html=1;align=center;movable=1;resizable=1;rotatable=1;deletable=1;editable=1;connectable=1;" vertex="1" parent="1">
                    <mxGeometry x="-40" y="190" width="30" height="30" as="geometry"/>
                </mxCell>
                <mxCell id="86" value="&lt;span style=&quot;font-size: 11px;&quot;&gt;`k_1`&lt;/span&gt;" style="text;whiteSpace=wrap;html=1;align=center;movable=1;resizable=1;rotatable=1;deletable=1;editable=1;connectable=1;" vertex="1" parent="1">
                    <mxGeometry x="20" y="190" width="30" height="30" as="geometry"/>
                </mxCell>
                <mxCell id="87" value="&lt;span style=&quot;font-size: 11px;&quot;&gt;`k_2`&lt;/span&gt;" style="text;whiteSpace=wrap;html=1;align=center;movable=1;resizable=1;rotatable=1;deletable=1;editable=1;connectable=1;" vertex="1" parent="1">
                    <mxGeometry x="80" y="190" width="30" height="30" as="geometry"/>
                </mxCell>
                <mxCell id="88" value="&lt;span style=&quot;font-size: 11px;&quot;&gt;`k_3`&lt;/span&gt;" style="text;whiteSpace=wrap;html=1;align=center;movable=1;resizable=1;rotatable=1;deletable=1;editable=1;connectable=1;" vertex="1" parent="1">
                    <mxGeometry x="140" y="190" width="30" height="30" as="geometry"/>
                </mxCell>
                <mxCell id="89" value="&lt;span style=&quot;font-size: 11px;&quot;&gt;`k_4`&lt;/span&gt;" style="text;whiteSpace=wrap;html=1;align=center;movable=1;resizable=1;rotatable=1;deletable=1;editable=1;connectable=1;" vertex="1" parent="1">
                    <mxGeometry x="200" y="190" width="30" height="30" as="geometry"/>
                </mxCell>
                <mxCell id="90" value="&lt;span style=&quot;font-size: 11px;&quot;&gt;`k_5`&lt;/span&gt;" style="text;whiteSpace=wrap;html=1;align=center;movable=1;resizable=1;rotatable=1;deletable=1;editable=1;connectable=1;" vertex="1" parent="1">
                    <mxGeometry x="260" y="190" width="30" height="30" as="geometry"/>
                </mxCell>
                <mxCell id="91" value="" style="group" vertex="1" connectable="0" parent="1">
                    <mxGeometry x="-90" y="150" width="390" height="45" as="geometry"/>
                </mxCell>
                <mxCell id="28" value="" style="group" vertex="1" connectable="0" parent="91">
                    <mxGeometry y="15" width="35" height="30" as="geometry"/>
                </mxCell>
                <mxCell id="29" value="&lt;span style=&quot;font-size: 11px;&quot;&gt;`h'_0`&lt;/span&gt;" style="text;whiteSpace=wrap;html=1;align=center;movable=1;resizable=1;rotatable=1;deletable=1;editable=1;connectable=1;" vertex="1" parent="28">
                    <mxGeometry width="30" height="30" as="geometry"/>
                </mxCell>
                <mxCell id="30" value="" style="shape=waypoint;sketch=0;fillStyle=solid;size=6;pointerEvents=1;points=[];fillColor=none;resizable=0;rotatable=0;perimeter=centerPerimeter;snapToPoint=1;" vertex="1" parent="28">
                    <mxGeometry x="15" y="5" width="20" height="20" as="geometry"/>
                </mxCell>
                <mxCell id="31" value="" style="group" vertex="1" connectable="0" parent="91">
                    <mxGeometry x="60" y="15" width="35" height="30" as="geometry"/>
                </mxCell>
                <mxCell id="32" value="&lt;span style=&quot;font-size: 11px;&quot;&gt;`h'_1`&lt;/span&gt;" style="text;whiteSpace=wrap;html=1;align=center;movable=1;resizable=1;rotatable=1;deletable=1;editable=1;connectable=1;" vertex="1" parent="31">
                    <mxGeometry width="30" height="30" as="geometry"/>
                </mxCell>
                <mxCell id="33" value="" style="shape=waypoint;sketch=0;fillStyle=solid;size=6;pointerEvents=1;points=[];fillColor=none;resizable=0;rotatable=0;perimeter=centerPerimeter;snapToPoint=1;" vertex="1" parent="31">
                    <mxGeometry x="15" y="5" width="20" height="20" as="geometry"/>
                </mxCell>
                <mxCell id="34" value="" style="group" vertex="1" connectable="0" parent="91">
                    <mxGeometry x="120" y="15" width="35" height="30" as="geometry"/>
                </mxCell>
                <mxCell id="35" value="&lt;span style=&quot;font-size: 11px;&quot;&gt;`h'_2`&lt;/span&gt;" style="text;whiteSpace=wrap;html=1;align=center;movable=1;resizable=1;rotatable=1;deletable=1;editable=1;connectable=1;" vertex="1" parent="34">
                    <mxGeometry width="30" height="30" as="geometry"/>
                </mxCell>
                <mxCell id="36" value="" style="shape=waypoint;sketch=0;fillStyle=solid;size=6;pointerEvents=1;points=[];fillColor=none;resizable=0;rotatable=0;perimeter=centerPerimeter;snapToPoint=1;" vertex="1" parent="34">
                    <mxGeometry x="15" y="5" width="20" height="20" as="geometry"/>
                </mxCell>
                <mxCell id="37" value="" style="group" vertex="1" connectable="0" parent="91">
                    <mxGeometry x="180" y="15" width="35" height="30" as="geometry"/>
                </mxCell>
                <mxCell id="38" value="&lt;span style=&quot;font-size: 11px;&quot;&gt;`h'_3`&lt;/span&gt;" style="text;whiteSpace=wrap;html=1;align=center;movable=1;resizable=1;rotatable=1;deletable=1;editable=1;connectable=1;" vertex="1" parent="37">
                    <mxGeometry width="30" height="30" as="geometry"/>
                </mxCell>
                <mxCell id="39" value="" style="shape=waypoint;sketch=0;fillStyle=solid;size=6;pointerEvents=1;points=[];fillColor=none;resizable=0;rotatable=0;perimeter=centerPerimeter;snapToPoint=1;" vertex="1" parent="37">
                    <mxGeometry x="15" y="5" width="20" height="20" as="geometry"/>
                </mxCell>
                <mxCell id="40" value="" style="group" vertex="1" connectable="0" parent="91">
                    <mxGeometry x="240" y="15" width="35" height="30" as="geometry"/>
                </mxCell>
                <mxCell id="41" value="&lt;span style=&quot;font-size: 11px;&quot;&gt;`h'_4`&lt;/span&gt;" style="text;whiteSpace=wrap;html=1;align=center;movable=1;resizable=1;rotatable=1;deletable=1;editable=1;connectable=1;" vertex="1" parent="40">
                    <mxGeometry width="30" height="30" as="geometry"/>
                </mxCell>
                <mxCell id="42" value="" style="shape=waypoint;sketch=0;fillStyle=solid;size=6;pointerEvents=1;points=[];fillColor=none;resizable=0;rotatable=0;perimeter=centerPerimeter;snapToPoint=1;" vertex="1" parent="40">
                    <mxGeometry x="15" y="5" width="20" height="20" as="geometry"/>
                </mxCell>
                <mxCell id="43" value="" style="group" vertex="1" connectable="0" parent="91">
                    <mxGeometry x="300" y="15" width="35" height="30" as="geometry"/>
                </mxCell>
                <mxCell id="44" value="&lt;span style=&quot;font-size: 11px;&quot;&gt;`h'_5`&lt;/span&gt;" style="text;whiteSpace=wrap;html=1;align=center;movable=1;resizable=1;rotatable=1;deletable=1;editable=1;connectable=1;" vertex="1" parent="43">
                    <mxGeometry width="30" height="30" as="geometry"/>
                </mxCell>
                <mxCell id="45" value="" style="shape=waypoint;sketch=0;fillStyle=solid;size=6;pointerEvents=1;points=[];fillColor=none;resizable=0;rotatable=0;perimeter=centerPerimeter;snapToPoint=1;" vertex="1" parent="43">
                    <mxGeometry x="15" y="5" width="20" height="20" as="geometry"/>
                </mxCell>
                <mxCell id="57" value="" style="edgeStyle=orthogonalEdgeStyle;curved=1;html=1;strokeWidth=1;endArrow=classicThin;endFill=0;" edge="1" parent="91" source="30" target="33">
                    <mxGeometry relative="1" as="geometry">
                        <Array as="points">
                            <mxPoint x="40" y="30"/>
                            <mxPoint x="40" y="15"/>
                            <mxPoint x="85" y="15"/>
                        </Array>
                    </mxGeometry>
                </mxCell>
                <mxCell id="58" value="" style="edgeStyle=orthogonalEdgeStyle;curved=1;html=1;strokeWidth=1;endArrow=classicThin;endFill=0;entryX=0.444;entryY=0.383;entryDx=0;entryDy=0;entryPerimeter=0;" edge="1" parent="91" source="33" target="36">
                    <mxGeometry relative="1" as="geometry">
                        <Array as="points">
                            <mxPoint x="100" y="30"/>
                            <mxPoint x="100" y="15"/>
                            <mxPoint x="145" y="15"/>
                        </Array>
                    </mxGeometry>
                </mxCell>
                <mxCell id="60" value="" style="edgeStyle=orthogonalEdgeStyle;curved=1;html=1;strokeWidth=1;endArrow=classicThin;endFill=0;entryX=0.814;entryY=-0.022;entryDx=0;entryDy=0;entryPerimeter=0;" edge="1" parent="91" source="36" target="39">
                    <mxGeometry relative="1" as="geometry">
                        <Array as="points">
                            <mxPoint x="160" y="30"/>
                            <mxPoint x="160" y="15"/>
                            <mxPoint x="205" y="15"/>
                        </Array>
                    </mxGeometry>
                </mxCell>
                <mxCell id="61" value="" style="edgeStyle=orthogonalEdgeStyle;curved=1;html=1;strokeWidth=1;endArrow=classicThin;endFill=0;entryX=0.946;entryY=0.328;entryDx=0;entryDy=0;entryPerimeter=0;" edge="1" parent="91" source="39" target="42">
                    <mxGeometry relative="1" as="geometry">
                        <Array as="points">
                            <mxPoint x="220" y="30"/>
                            <mxPoint x="220" y="15"/>
                            <mxPoint x="265" y="15"/>
                        </Array>
                    </mxGeometry>
                </mxCell>
                <mxCell id="62" value="" style="edgeStyle=orthogonalEdgeStyle;curved=1;html=1;strokeWidth=1;endArrow=classicThin;endFill=0;entryX=1.095;entryY=0.585;entryDx=0;entryDy=0;entryPerimeter=0;" edge="1" parent="91" source="42" target="45">
                    <mxGeometry relative="1" as="geometry">
                        <Array as="points">
                            <mxPoint x="280" y="30"/>
                            <mxPoint x="280" y="15"/>
                            <mxPoint x="325" y="15"/>
                        </Array>
                    </mxGeometry>
                </mxCell>
                <mxCell id="63" value="" style="edgeStyle=orthogonalEdgeStyle;curved=1;html=1;strokeWidth=1;endArrow=classicThin;endFill=0;" edge="1" parent="91" source="45" target="67">
                    <mxGeometry relative="1" as="geometry">
                        <mxPoint x="370" y="15" as="targetPoint"/>
                        <Array as="points">
                            <mxPoint x="340" y="30"/>
                            <mxPoint x="340" y="15"/>
                        </Array>
                    </mxGeometry>
                </mxCell>
                <mxCell id="67" value="&lt;span style=&quot;font-size: 11px;&quot;&gt;`...`&lt;/span&gt;" style="text;whiteSpace=wrap;html=1;align=center;movable=1;resizable=1;rotatable=1;deletable=1;editable=1;connectable=1;" vertex="1" parent="91">
                    <mxGeometry x="370" width="20" height="20" as="geometry"/>
                </mxCell>
                <mxCell id="92" value="" style="endArrow=none;html=1;strokeWidth=2;fontStyle=1" edge="1" parent="1">
                    <mxGeometry width="50" height="50" relative="1" as="geometry">
                        <mxPoint x="40" y="249.99999999999994" as="sourcePoint"/>
                        <mxPoint x="40" y="239.99999999999994" as="targetPoint"/>
                    </mxGeometry>
                </mxCell>
                <mxCell id="93" value="&lt;span style=&quot;font-size: 11px;&quot;&gt;`t_i`&lt;/span&gt;" style="text;whiteSpace=wrap;html=1;align=center;movable=1;resizable=1;rotatable=1;deletable=1;editable=1;connectable=1;" vertex="1" parent="1">
                    <mxGeometry x="40" y="240" width="30" height="30" as="geometry"/>
                </mxCell>
                <mxCell id="96" value="&lt;span style=&quot;font-size: 11px;&quot;&gt;\(keygen()\)&lt;/span&gt;" style="text;whiteSpace=wrap;html=1;align=center;movable=1;resizable=1;rotatable=1;deletable=1;editable=1;connectable=1;" vertex="1" parent="1">
                    <mxGeometry x="-120" y="190" width="50" height="30" as="geometry"/>
                </mxCell>
                <mxCell id="98" value="" style="shape=waypoint;sketch=0;fillStyle=solid;size=6;pointerEvents=1;points=[];fillColor=none;resizable=0;rotatable=0;perimeter=centerPerimeter;snapToPoint=1;" vertex="1" parent="1">
                    <mxGeometry x="-130" y="170" width="20" height="20" as="geometry"/>
                </mxCell>
                <mxCell id="102" value="" style="edgeStyle=orthogonalEdgeStyle;curved=1;html=1;strokeWidth=1;endArrow=classicThin;endFill=0;" edge="1" parent="1">
                    <mxGeometry relative="1" as="geometry">
                        <mxPoint x="-120" y="180" as="sourcePoint"/>
                        <mxPoint x="-65" y="180" as="targetPoint"/>
                        <Array as="points">
                            <mxPoint x="-90" y="180"/>
                            <mxPoint x="-90" y="165"/>
                            <mxPoint x="-65" y="165"/>
                        </Array>
                    </mxGeometry>
                </mxCell>
                <mxCell id="103" value="&lt;span style=&quot;font-size: 11px;&quot;&gt;\(hash()\)&lt;/span&gt;" style="text;whiteSpace=wrap;html=1;align=center;movable=1;resizable=1;rotatable=1;deletable=1;editable=1;connectable=1;" vertex="1" parent="1">
                    <mxGeometry x="-130" y="145" width="50" height="30" as="geometry"/>
                </mxCell>
                <mxCell id="104" value="&lt;span style=&quot;font-size: 11px;&quot;&gt;\(seed\)&lt;/span&gt;" style="text;whiteSpace=wrap;html=1;align=center;movable=1;resizable=1;rotatable=1;deletable=1;editable=1;connectable=1;" vertex="1" parent="1">
                    <mxGeometry x="-140" y="175" width="50" height="30" as="geometry"/>
                </mxCell>
                <mxCell id="105" value="&lt;span style=&quot;font-size: 11px;&quot;&gt;secondary hash chain&lt;/span&gt;" style="text;whiteSpace=wrap;html=1;align=center;movable=1;resizable=1;rotatable=1;deletable=1;editable=1;connectable=1;" vertex="1" parent="1">
                    <mxGeometry x="310" y="157.5" width="70" height="30" as="geometry"/>
                </mxCell>
                <mxCell id="106" value="&lt;span style=&quot;font-size: 11px;&quot;&gt;primary&lt;br&gt;key-regression&lt;br&gt;&lt;/span&gt;" style="text;whiteSpace=wrap;html=1;align=center;movable=1;resizable=1;rotatable=1;deletable=1;editable=1;connectable=1;" vertex="1" parent="1">
                    <mxGeometry x="305" y="200" width="80" height="30" as="geometry"/>
                </mxCell>
                <mxCell id="107" value="" style="endArrow=blockThin;startArrow=blockThin;html=1;strokeWidth=2;curved=1;endFill=1;startFill=1;" edge="1" parent="1">
                    <mxGeometry width="50" height="50" relative="1" as="geometry">
                        <mxPoint x="-80" y="265" as="sourcePoint"/>
                        <mxPoint x="160" y="265" as="targetPoint"/>
                    </mxGeometry>
                </mxCell>
                <mxCell id="108" value="entire stream" style="edgeLabel;html=1;align=center;verticalAlign=middle;resizable=0;points=[];" vertex="1" connectable="0" parent="107">
                    <mxGeometry x="0.2477" y="2" relative="1" as="geometry">
                        <mxPoint x="-106" y="12" as="offset"/>
                    </mxGeometry>
                </mxCell>
                <mxCell id="109" value="" style="endArrow=blockThin;startArrow=blockThin;html=1;strokeWidth=2;curved=1;endFill=1;startFill=1;" edge="1" parent="1">
                    <mxGeometry width="50" height="50" relative="1" as="geometry">
                        <mxPoint x="40" y="275" as="sourcePoint"/>
                        <mxPoint x="160" y="275" as="targetPoint"/>
                    </mxGeometry>
                </mxCell>
                <mxCell id="110" value="interval" style="edgeLabel;html=1;align=center;verticalAlign=middle;resizable=0;points=[];" vertex="1" connectable="0" parent="109">
                    <mxGeometry x="0.33" y="2" relative="1" as="geometry">
                        <mxPoint x="-20" y="12" as="offset"/>
                    </mxGeometry>
                </mxCell>
            </root>
        </mxGraphModel>
    </diagram>
</mxfile>